/* XPM */
static char * Untitled_xpm[] = {
"84 84 140 2",
"  	c #CDD8A7",
". 	c #C6D68E",
"+ 	c #C6D68C",
"@ 	c #C9D799",
"# 	c #C1D476",
"$ 	c #C0D472",
"% 	c #C9D798",
"& 	c #C1D475",
"* 	c #C0D470",
"= 	c #C1D471",
"- 	c #C2D572",
"; 	c #C1D572",
"> 	c #C0D471",
", 	c #C4D677",
"' 	c #CADA80",
") 	c #CBDB82",
"! 	c #CBDB81",
"~ 	c #C9DA7E",
"{ 	c #C3D574",
"] 	c #CCDB83",
"^ 	c #DBE598",
"/ 	c #DEE79D",
"( 	c #D8E394",
"_ 	c #C8D97C",
": 	c #C1D573",
"< 	c #D0DE88",
"[ 	c #E2EAA3",
"} 	c #E7EDA8",
"| 	c #E7EDA9",
"1 	c #DFE79E",
"2 	c #E3EBA4",
"3 	c #E8EEAA",
"4 	c #E7EEA9",
"5 	c #E0E89F",
"6 	c #C2D574",
"7 	c #D0DE89",
"8 	c #E2EBA3",
"9 	c #E8EEA9",
"0 	c #DFE89F",
"a 	c #C4D776",
"b 	c #C7D87B",
"c 	c #C8D87C",
"d 	c #C9D97E",
"e 	c #D2DF8C",
"f 	c #E2EAA2",
"g 	c #E2E9A1",
"h 	c #DAE598",
"i 	c #C8D97D",
"j 	c #C2D674",
"k 	c #CDDC85",
"l 	c #DAE497",
"m 	c #D9E497",
"n 	c #D6E293",
"o 	c #D2E08C",
"p 	c #D1DE8A",
"q 	c #D0DE8A",
"r 	c #CDDC84",
"s 	c #C3D675",
"t 	c #D4E090",
"u 	c #E6EDA8",
"v 	c #E6ECA6",
"w 	c #C3D674",
"x 	c #C2D573",
"y 	c #C4D676",
"z 	c #D5E191",
"A 	c #E5ECA6",
"B 	c #E7ECA8",
"C 	c #DAE599",
"D 	c #C6D87B",
"E 	c #E7ECA9",
"F 	c #DAE499",
"G 	c #C6D77B",
"H 	c #C4D777",
"I 	c #C5D778",
"J 	c #D5E18F",
"K 	c #D5E190",
"L 	c #D4E18F",
"M 	c #CEDD87",
"N 	c #E0E9A0",
"O 	c #E5ECA5",
"P 	c #E4EBA6",
"Q 	c #DDE69C",
"R 	c #CADA7F",
"S 	c #E3EBA3",
"T 	c #C1D571",
"U 	c #CFDD87",
"V 	c #E1E9A1",
"W 	c #E5EDA7",
"X 	c #E6EDA7",
"Y 	c #E6ECA7",
"Z 	c #DEE89D",
"` 	c #CBDC83",
" .	c #C3D676",
"..	c #C1D472",
"+.	c #D7E394",
"@.	c #D8E395",
"#.	c #CFDE89",
"$.	c #CFDE88",
"%.	c #CEDC86",
"&.	c #C6D879",
"*.	c #C7D87A",
"=.	c #C7D97C",
"-.	c #CEDD86",
";.	c #DCE69A",
">.	c #CADB81",
",.	c #E3EAA3",
"'.	c #E4EBA5",
").	c #C6D77A",
"!.	c #DDE69B",
"~.	c #DFE79D",
"{.	c #DEE79C",
"].	c #D4E190",
"^.	c #C4D778",
"/.	c #C6D779",
"(.	c #CADA81",
"_.	c #D1DE89",
":.	c #DCE69B",
"<.	c #E5EBA6",
"[.	c #DAE498",
"}.	c #E4ECA6",
"|.	c #DFE89E",
"1.	c #D9E496",
"2.	c #D1DE8B",
"3.	c #D4E08F",
"4.	c #D8E496",
"5.	c #C6D87A",
"6.	c #E1EAA2",
"7.	c #C9DA7F",
"8.	c #E4EBA4",
"9.	c #D1DF8A",
"0.	c #D6E191",
"a.	c #D3E08E",
"b.	c #CFDD88",
"c.	c #DEE79E",
"d.	c #CAD79E",
"e.	c #C3D57E",
"f.	c #C2D57B",
"g.	c #D3DABB",
"h.	c #CED8AD",
"i.	c #CED8AC",
"  . + + + + + + + + + + + + + + + + + + + + + + + + + + + + + + + + + + + + + + + + + + + + + + + + + + + + + + + + + + + + + + + + + + + + + + + + + + + + + + + + .   ",
"@ # $ $ $ $ $ $ $ $ $ $ $ $ $ $ $ $ $ $ $ $ $ $ $ $ $ $ $ $ $ $ $ $ $ $ $ $ $ $ $ $ $ $ $ $ $ $ $ $ $ $ $ $ $ $ $ $ $ $ $ $ $ $ $ $ $ $ $ $ $ $ $ $ $ $ $ $ $ $ $ $ # @ ",
"% & * * * * * * * * * * * * * * * * * * * * * * * * * * * * * * * * * * * * * * * * * * * * * * * * * * * * * * * * * * * * * * * * * * * * * * * * * * * * * * * * & % ",
"% & * * * * * * * * * * * * * * * * * * * * * * * * * * * * * * * * * * * * * * * * * * * * * * * * * * * * * * * * * * * * * * * * * * * * * * * * * * * * * * * * & % ",
"% & * * * * * * * * * * * * * * * * * * * * * * * * * * * * * * * * * * * * * * * * * * * * * * * * * * * * * * * * * * * * * * * * * * * * * * * * * * * * * * * * & % ",
"% & * * * * * * * * * * * * * * * * * * * * * * * * * * * * * * * * * * * * * * * * * * * * * * * * * * * * * * * * * * * * * * * * * * * * * * * * * * * * * * * * & % ",
"% & * * * * * * * * * * * * * * * * * * * * * * * * * * * * * * * * * * * * * * * * * * * * * * * * * * * * * * * * * * * * * * * * * * * * * * * * * * * * * * * * & % ",
"% & * * * * * * * * * * * * * * * * * * * * * * * * * * * * * * * * * * * * * * * * * * * * * * * * * * * * * * * * * * * * * * * * * * * * * * * * * * * * * * * * & % ",
"% & * * * * * * * * * * * * * * * * * * * * * * * * * * * * * * * * * * * * * * * * * * * * * * * * * * * * * * * * * * * * * * * * * * * * * * * * * * * * * * * * & % ",
"% & * * * * * * * * * * * * * * * * * * * * * * * * * * * * * * * * * * * * * * * * * * * * * * * * * * * * * * * * * * * * * * * * * * * * * * * * * * * * * * * * & % ",
"% & * * * * * * * * * * * * * * * * * * * * * * * * * * * * * * * * * * * * * * * * * * * * * * * * * * * * * * * * * * * * * * * * * * * * * * * * * * * * * * * * & % ",
"% & * * * * * * * * * * * * * * * * * * * * * * * * * * * * * * * * * * * * * * * * * * * * * * * * * * * * * * * * * * * * * * * * * * * * * * * * * * * * * * * * & % ",
"% & * * * * * * * * * * * * * * * * * * * * * * * * * * * * * * * * * * * * * * * * * * * * * * * * * * * * * * * * * * * * * * * * * * * * * * * * * * * * * * * * & % ",
"% & * * * * * * * * * * * * * * * * * * * * * * * * * * * * * * * * * * * * * * * * * * * * * * * * * * * * * * * * * * * * * * * * * * * * * * * * * * * * * * * * & % ",
"% & * * * * * * * * * * * * * * * * * * * * * * * * * * * * * * * * * * * * * * * * * * * * * * * * * * * * * * * * * * * * * * * * * * * * * * * * * * * * * * * * & % ",
"% & * * * * * * * * * * * * * * * * * * * * * * * * * * * * * * * * * * * * * * * * * * * * * * * * * * * * * * * * * * * * * * * * * * * * * * * * * * * * * * * * & % ",
"% & * * * * * * * * * * * * * * * * * * * * * * * * * * * * * * * * * * * * * * * * * * * * * * * * * * * * * * * * * * * * * * * * * * * * * * * * * * * * * * * * & % ",
"% & * * * * * * * * * * * * * * * * * * * * * * * * * * * * * * * * * * * * * * * * * * * * * * * * * * * * * * * * * * * * * * * * * * * * * * * * * * * * * * * * & % ",
"% & * * * * * * * * * * * * * * * * * * * * * * * * * * * * * * * * * * * * * * * * * * * * * * * * * * * * * * * * * * * * * * * * * * * * * * * * * * * * * * * * & % ",
"% & * * * * * * * * * * * * * * * * * * * * * * * * * * * * * * * * * * * * * * * * * * * * * * * * * * * * * * * * * * * * * * * * * * * * * * * * * * * * * * * * & % ",
"% & * * * * * * * * * * * * * * * * * * * * * * * * * * * * * * * * * * * * * * * * * * * * * * * * * * * * * * * * * * * * * * * * * * * * * * * * * * * * * * * * & % ",
"% & * * * * * * * * * * * * * * * * * * * * * * * * * * * * * * * * * * * * * * * * * * * * * * * * * * * * * * * * * * * * * * * * * * * * * * * * * * * * * * * * & % ",
"% & * * * * * * * * * * * * * * * * * * * * * * * * * * * * * * * * * * * * * * * * * * * * * * * * * * * * * * * * * * * * * * * * * * * * * * * * * * * * * * * * & % ",
"% & * * * * * * * * * * * * * * * * * * * * * * * * * * * * * * * * * * * * * * * * * * * * * * * * * * * * * * * * * * * * * * * * * * * * * * * * * * * * * * * * & % ",
"% & * * * * * * * * * * * * * * * * * * * * * * * * * * * * * * * * * * = - - - - ; > * * * * * * * * * * * * * * * * * * * * * * * * * * * * * * * * * * * * * * * & % ",
"% & * * * * * * * * * * * * * * * * * * * * * * * * * * * * * * * * * > , ' ) ) ! ~ { * * * * * * * * * * * * * * * * * * * * * * * * * * * * * * * * * * * * * * * & % ",
"% & * * * * * * * * * * * * * * * * * * * * * * * * * * * * * * * * * ; ] ^ / / / ( _ = * * * * * * * * * * * * * * * * * * * * * * * * * * * * * * * * * * * * * * & % ",
"% & * * * * * * * * * * * * * * * * * * * * * * * * * * * * * * * * * : < [ } | } 1 ' = * * * * * * * * * * * * * * * * * * * * * * * * * * * * * * * * * * * * * * & % ",
"% & * * * * * * * * * * * * * * * * * * * * * * * * * * * * * * * * * - < 2 3 3 4 5 ' = * * * * * * * * * * * * * * * * * * * * * * * * * * * * * * * * * * * * * * & % ",
"% & * * * * * * * * * * * * * * * * * * * * * * * * * * * * * * = = = 6 7 8 4 9 | 0 ' = * * * * * * * * * * * * * * * * * * * * * * * * * * * * * * * * * * * * * * & % ",
"% & * * * * * * * * * * * * * * * * * * * * * * * * * * * * = a b c c d e / f f g h i = * * * * * * * * * * * * * * * * * * * * * * * * * * * * * * * * * * * * * * & % ",
"% & * * * * * * * * * * * * * * * * * * * * * * * * * * * * j k ( l l m n o p q p r a * * * * * * * * * * * * * * * * * * * * * * * * * * * * * * * * * * * * * * * & % ",
"% & * * * * * * * * * * * * * * * * * * * * * * * * * * * * s t 2 u } v h i w x x ; = * * * * * * * * * * * * * * * * * * * * * * * * * * * * * * * * * * * * * * * & % ",
"% & * * * * * * * * * * * * * * * * * * * * * * * * * * * * y z A 3 3 B C D > * * * * * * * * * * * * * * * * * * * * * * * * * * * * * * * * * * * * * * * * * * * & % ",
"% & * * * * * * * * * * * * * * * * * * * * * * * * * * * * y z A 3 3 E F G > * * * * * * * * * * * * * * * * * * * * * * * * * * * * * * * * * * * * * * * * * * * & % ",
"% & * * * * * * * * * * * * * : H I I I y ; * * * * * * * * y z A 3 3 E F G > * * * * * * * * * * * * * * * * * * * * * * * * * * * * * * * * * * * * * * * * * * * & % ",
"% & * * * * * * * * * * * * = i e J K L 7 I > * * * * * * * y z A 3 3 E F G > * * * * * * * * * * * * * * * * * * * * * * * * * * * * * * * * * * * * * * * * * * * & % ",
"% & * * * * * * * * * * * * : M N O A P Q R = * * * * * * * y z A 3 3 E F G > * * * * * * * * * * * * * * * * * * * * * * * * * * * * * * * * * * * * * * * * * * * & % ",
"% & * * * * * * * * * * * * : < S 4 3 | 0 ' = * * * * * * * y z A 3 3 E F G > * * * * * * * * * * * * * * * * * * * * * * * * * * * * * * * * * * * * * * * * * * * & % ",
"% & * * * * * * * * * * * * ; 7 2 9 3 | 5 ' T * * * * * * * y z A 3 3 E F G > * * * * * * * * * * * * * * * * * * * * * * * * * * * * * * * * * * * * * * * * * * * & % ",
"% & * * * * * * * * * * * * : U V W X Y Z `  .{ { { = * * * y z A 3 3 E F G > * * * * * * * * * * * * * * * * * * * * * * * * * * * * * * * * * * * * * * * * * * * & % ",
"% & * * * * * * * * * * * * ..' +.h h ^ @.o 7 #.$.%.&.> * * y z A 3 3 E F G > * * * * * * * * * * * * * * * * * * * * * * * * * * * * * * * * * * * * * * * * * * * & % ",
"% & * * * * * * * * * * * * * j *.b b =.-.;.f f f / k : * * y z A 3 3 E F G > * * * * * * * * * * * * * * * * * * * * * * * * * * * * * * * * * * * * * * * * * * * & % ",
"% & * * * * * * * * * * * * * * = = = ; >.0 | 9 4 ,.< : * * y z A 3 3 E F G > * * * * * * * * * * * * * * * * * * * * * * * * * * * * * * * * * * * * * * * * * * * & % ",
"% & * * * * * * * * * * * * * * * * * = ' 5 4 3 3 2 7 ; * * y z A 3 3 E F G > * * * * * * * * * * * * * * * * * * * * * * * * * * * * * * * * * * * * * * * * * * * & % ",
"% & * * * * * * * * * * * * * * * * * = ' 5 4 3 3 2 7 ; * *  .K '.} | Y l ).> * * * * * * * * * * * * * = - - - - ..* * * * * * * * * * * * * * * * * * * * * * * * & % ",
"% & * * * * * * * * * * * * * * * * * = ' 5 4 3 3 2 7 ; * * { 7 !.~.1 {.].^.> * * * * * * * * * * * * = /.(.) ) ! c : * * * * * * * * * * * * * * * * * * * * * * * & % ",
"% & * * * * * * * * * * * * * * * * * = ' 5 4 3 3 2 7 ; * * = &.! ) ) ! =.: * * * * * * * * * * * * * w _.:./ / {.L I > * * * * * * * * * * * * * * * * * * * * * * & % ",
"% & * * * * * * * * * * * * * * * * * = ' 5 4 3 3 2 7 ; * * * = T T T T T * * * * * * * * * * * * * * y K <.| | Y [.G > * * * * * * * * * * * * * * * * * * * * * * & % ",
"% & * * * * * * * * * * * * * * * * * = ' 5 4 3 3 2 7 ; * * * * * * * * * * * * * * * * * * * * * * * y z A 3 3 E C G > * * * * * * * * * * * * * * * * * * * * * * & % ",
"% & * * * * * * * * * * * * * * * * * = ' 5 4 3 3 2 7 ; * * * * * * * * * * * * * * * * * * * * * * * y z }.4 9 B C D ; = = * * * * * * * * * * * * * * * * * * * * & % ",
"% & * * * * * * * * * * * * * * * * * = ' 5 4 3 3 2 7 ; * * * * * * * * * * * * * * * * * * * * * * * s e |.f f V 1.] i c c /.x * * * * * * * * * * * * * * * * * * & % ",
"% & * * * * * * * * * * * * * * * * * = ' 5 4 3 3 2 7 ; * * * * * * * * * * * * * * * * * * * * * * * ; i < q q 2.3.4.l l l L 5.> * * * * * * * * * * * * * * * * * & % ",
"% & * * * * * * * * * * * * * * * * * = ' 5 4 3 3 2 7 ; * * * * * * * * * * * * * * * * * * * * * * * * T x x x y q 6.X } Y / R = * * * * * * * * * * * * * * * * * & % ",
"% & * * * * * * * * * * * * * * * * * = ' 5 4 3 3 2 7 ; * * * * * * * * * * * * * * * * * * * * * * * * * * * * x 7 S 3 3 4 0 ' = * * * * * * * * * * * * * * * * * & % ",
"% & * * * * * * * * * * * * * * * * * = ' 0 | 3 9 2 < ; * * * * * * * * * * * * * * * * * * * * * * * * * * * * ; < 2 3 3 4 5 ' = * * * * * * * * * * * * * * * * * & % ",
"% & * * * * * * * * * * * * * * * * * = 7.;.8.'.8.0 -.: * * * * * * * * * * * * * * * * * * * * * * * * * * * * ; 7 2 3 3 4 5 ' = * * * * * * * * * * * * * * * * * & % ",
"% & * * * * * * * * * * * * * * * * * > I 9.0.0.z a.i ..* * * * * * * * * * * * * * * * * * * * * * * * * * * * ; 7 2 3 3 4 5 ' = * * * * * * * * * * * * * * * * * & % ",
"% & * * * * * * * * * * * * * * * * * * ..s y y y y - * * * * * * * * * * * * * * * * * * * * * * * * * * * * * ; 7 2 3 3 4 5 ' = * * * * * * * * * * * * * * * * * & % ",
"% & * * * * * * * * * * * * * * * * * * * > = = = = * * * * * * * * * * * * * * * * * * * * * * * * * * * * * * ; 7 2 3 3 4 5 ' = * * * * * * * * * * * * * * * * * & % ",
"% & * * * * * * * * * * * * * * * * * * * * * * * * * * * * * * * * * * * * * * * * * * * * * * * * * * * * * * ; 7 2 3 3 4 5 ' = * * * * * * * * * * * * * * * * * & % ",
"% & * * * * * * * * * * * * * * * * * * * * * * * * * * * * * * * * * * * * * * * * * * * * * * * * * * * * * * ; 7 2 3 3 4 5 ' = * * * * * * * * * * * * * * * * * & % ",
"% & * * * * * * * * * * * * * * * * * * * * * * * * * * * * * * * * * * * * * * * * * * * * * * * * * * * * * * ; 7 2 3 3 4 5 ' = * * * * * * * * * * * * * * * * * & % ",
"% & * * * * * * * * * * * * * * * * * * * * * * * * * * * * * * * * * * * * * * * * * * * * * * * * * * * * * * ; 7 2 3 3 4 5 ' = * * * * * * * * * * * * * * * * * & % ",
"% & * * * * * * * * * * * * * * * * * * * * * * * * * * * * * * * * * * * * * * * * * * * * * * * * * * * * * * ; 7 2 3 3 4 5 ' = * * * * * * * * * * * * * * * * * & % ",
"% & * * * * * * * * * * * * * * * * * * * * * * * * * * * * * * * * * * * * * * * * * * * * * * * * * * * * * * ; 7 2 4 3 | 5 ' = * * * * * * * * * * * * * * * * * & % ",
"% & * * * * * * * * * * * * * * * * * * * * * * * * * * * * * * * * * * * * * * * * * * * * * * * * * * * * * * : b.f u | B c.' = * * * * * * * * * * * * * * * * * & % ",
"% & * * * * * * * * * * * * * * * * * * * * * * * * * * * * * * * * * * * * * * * * * * * * * * * * * * * * * * ; ] h ~.1 / @._ = * * * * * * * * * * * * * * * * * & % ",
"% & * * * * * * * * * * * * * * * * * * * * * * * * * * * * * * * * * * * * * * * * * * * * * * * * * * * * * * > , ' ) ) ) d w * * * * * * * * * * * * * * * * * * & % ",
"% & * * * * * * * * * * * * * * * * * * * * * * * * * * * * * * * * * * * * * * * * * * * * * * * * * * * * * * * > T T T T T * * * * * * * * * * * * * * * * * * * & % ",
"% & * * * * * * * * * * * * * * * * * * * * * * * * * * * * * * * * * * * * * * * * * * * * * * * * * * * * * * * * * * * * * * * * * * * * * * * * * * * * * * * * & % ",
"% & * * * * * * * * * * * * * * * * * * * * * * * * * * * * * * * * * * * * * * * * * * * * * * * * * * * * * * * * * * * * * * * * * * * * * * * * * * * * * * * * & % ",
"% & * * * * * * * * * * * * * * * * * * * * * * * * * * * * * * * * * * * * * * * * * * * * * * * * * * * * * * * * * * * * * * * * * * * * * * * * * * * * * * * * & % ",
"% & * * * * * * * * * * * * * * * * * * * * * * * * * * * * * * * * * * * * * * * * * * * * * * * * * * * * * * * * * * * * * * * * * * * * * * * * * * * * * * * * & % ",
"% & * * * * * * * * * * * * * * * * * * * * * * * * * * * * * * * * * * * * * * * * * * * * * * * * * * * * * * * * * * * * * * * * * * * * * * * * * * * * * * * * & % ",
"% & * * * * * * * * * * * * * * * * * * * * * * * * * * * * * * * * * * * * * * * * * * * * * * * * * * * * * * * * * * * * * * * * * * * * * * * * * * * * * * * * & % ",
"% & * * * * * * * * * * * * * * * * * * * * * * * * * * * * * * * * * * * * * * * * * * * * * * * * * * * * * * * * * * * * * * * * * * * * * * * * * * * * * * * * & % ",
"% & * * * * * * * * * * * * * * * * * * * * * * * * * * * * * * * * * * * * * * * * * * * * * * * * * * * * * * * * * * * * * * * * * * * * * * * * * * * * * * * * & % ",
"% & * * * * * * * * * * * * * * * * * * * * * * * * * * * * * * * * * * * * * * * * * * * * * * * * * * * * * * * * * * * * * * * * * * * * * * * * * * * * * * * * & % ",
"% & * * * * * * * * * * * * * * * * * * * * * * * * * * * * * * * * * * * * * * * * * * * * * * * * * * * * * * * * * * * * * * * * * * * * * * * * * * * * * * * * & % ",
"% & * * * * * * * * * * * * * * * * * * * * * * * * * * * * * * * * * * * * * * * * * * * * * * * * * * * * * * * * * * * * * * * * * * * * * * * * * * * * * * * * & % ",
"% & > * * * * * * * * * * * * * * * * * * * * * * * * * * * * * * * * * * * * * * * * * * * * * * * * * * * * * * * * * * * * * * * * * * * * * * * * * * * * * * > & % ",
"d.e.f.f.f.f.f.f.f.f.f.f.f.f.f.f.f.f.f.f.f.f.f.f.f.f.f.f.f.f.f.f.f.f.f.f.f.f.f.f.f.f.f.f.f.f.f.f.f.f.f.f.f.f.f.f.f.f.f.f.f.f.f.f.f.f.f.f.f.f.f.f.f.f.f.f.f.f.f.f.f.f.e.d.",
"g.h.i.i.i.i.i.i.i.i.i.i.i.i.i.i.i.i.i.i.i.i.i.i.i.i.i.i.i.i.i.i.i.i.i.i.i.i.i.i.i.i.i.i.i.i.i.i.i.i.i.i.i.i.i.i.i.i.i.i.i.i.i.i.i.i.i.i.i.i.i.i.i.i.i.i.i.i.i.i.i.i.h.g."};
