/* XPM */
static char * grass_xpm[] = {
"64 64 306 2",
"  	c #68B743",
". 	c #67B441",
"+ 	c #66B541",
"@ 	c #65B641",
"# 	c #66B542",
"$ 	c #65B441",
"% 	c #66B53F",
"& 	c #66B43F",
"* 	c #66B540",
"= 	c #66B441",
"- 	c #65B440",
"; 	c #65B340",
"> 	c #64B43F",
", 	c #65B541",
"' 	c #67B542",
") 	c #65B540",
"! 	c #67B642",
"~ 	c #66B342",
"{ 	c #64B23F",
"] 	c #64B33F",
"^ 	c #66B642",
"/ 	c #68B644",
"( 	c #64B340",
"_ 	c #64B440",
": 	c #68B642",
"< 	c #65B33F",
"[ 	c #65B542",
"} 	c #64B241",
"| 	c #65B442",
"1 	c #67B541",
"2 	c #66B444",
"3 	c #63B23F",
"4 	c #64B441",
"5 	c #65B240",
"6 	c #66B440",
"7 	c #66B543",
"8 	c #67B543",
"9 	c #67B440",
"0 	c #64B341",
"a 	c #65B341",
"b 	c #65B53F",
"c 	c #67B643",
"d 	c #64B23E",
"e 	c #65B640",
"f 	c #68B643",
"g 	c #66B442",
"h 	c #66B340",
"i 	c #64B342",
"j 	c #63B33F",
"k 	c #63B340",
"l 	c #63B13F",
"m 	c #66B341",
"n 	c #67B641",
"o 	c #64B540",
"p 	c #67B442",
"q 	c #64B442",
"r 	c #63B23D",
"s 	c #64B33E",
"t 	c #69B843",
"u 	c #65B23D",
"v 	c #68B540",
"w 	c #63B440",
"x 	c #67B640",
"y 	c #64B13F",
"z 	c #64B63F",
"A 	c #65B33E",
"B 	c #62B23D",
"C 	c #65B23E",
"D 	c #65B43F",
"E 	c #67B43F",
"F 	c #68B640",
"G 	c #61B03D",
"H 	c #63B342",
"I 	c #66B33F",
"J 	c #66B641",
"K 	c #67B742",
"L 	c #64B33D",
"M 	c #65B241",
"N 	c #64B43D",
"O 	c #68B742",
"P 	c #65B23F",
"Q 	c #66B640",
"R 	c #67B342",
"S 	c #67B540",
"T 	c #68B341",
"U 	c #64B542",
"V 	c #68B744",
"W 	c #64B53F",
"X 	c #63B53F",
"Y 	c #67B741",
"Z 	c #63B43F",
"` 	c #65B342",
" .	c #52AC3F",
"..	c #62B43F",
"+.	c #68B641",
"@.	c #64B541",
"#.	c #65B242",
"$.	c #67B743",
"%.	c #64B240",
"&.	c #65B543",
"*.	c #66B43E",
"=.	c #67B341",
"-.	c #65B63F",
";.	c #65B43E",
">.	c #67B340",
",.	c #66B742",
"'.	c #52AA3E",
").	c #62B23E",
"!.	c #7BBD46",
"~.	c #54AD3F",
"{.	c #51AC3F",
"].	c #66B63F",
"^.	c #64B43E",
"/.	c #68B443",
"(.	c #62AF3D",
"_.	c #56AB41",
":.	c #68B441",
"<.	c #67B644",
"[.	c #68B542",
"}.	c #64B141",
"|.	c #53AA41",
"1.	c #64B23D",
"2.	c #65B443",
"3.	c #7BBE45",
"4.	c #68B541",
"5.	c #63B13E",
"6.	c #63B33E",
"7.	c #67B443",
"8.	c #69B543",
"9.	c #78BC42",
"0.	c #65B13F",
"a.	c #62B340",
"b.	c #69B642",
"c.	c #66B643",
"d.	c #63B341",
"e.	c #63B13D",
"f.	c #66B741",
"g.	c #68B741",
"h.	c #65B642",
"i.	c #64B443",
"j.	c #63B43E",
"k.	c #63B23E",
"l.	c #64B641",
"m.	c #62B33F",
"n.	c #62B13C",
"o.	c #67B544",
"p.	c #63B441",
"q.	c #63B240",
"r.	c #63B53E",
"s.	c #66B443",
"t.	c #53A940",
"u.	c #64B140",
"v.	c #67B740",
"w.	c #62B23F",
"x.	c #66B240",
"y.	c #66B743",
"z.	c #64B640",
"A.	c #68B543",
"B.	c #63B140",
"C.	c #69B643",
"D.	c #52AA3F",
"E.	c #60B142",
"F.	c #7ABD44",
"G.	c #52A840",
"H.	c #68B442",
"I.	c #79BD43",
"J.	c #5CB141",
"K.	c #56AA44",
"L.	c #62B13D",
"M.	c #65B644",
"N.	c #7CBD45",
"O.	c #54AB40",
"P.	c #53AB42",
"Q.	c #53AA40",
"R.	c #52AD42",
"S.	c #64B243",
"T.	c #5FB141",
"U.	c #52AB3D",
"V.	c #55AD44",
"W.	c #53AD41",
"X.	c #51AC40",
"Y.	c #52AC40",
"Z.	c #79BE44",
"`.	c #65B643",
" +	c #54AC41",
".+	c #51A93E",
"++	c #54AB42",
"@+	c #52A941",
"#+	c #69B542",
"$+	c #79BD45",
"%+	c #53AC41",
"&+	c #54AA42",
"*+	c #65B33D",
"=+	c #68B842",
"-+	c #63B540",
";+	c #62B13E",
">+	c #62B241",
",+	c #64B13E",
"'+	c #64B741",
")+	c #53AB40",
"!+	c #55AC42",
"~+	c #67B53F",
"{+	c #62B03F",
"]+	c #68B843",
"^+	c #60B141",
"/+	c #5BAF40",
"(+	c #66B23F",
"_+	c #54AB3F",
":+	c #52AB41",
"<+	c #57AE43",
"[+	c #65B53E",
"}+	c #78BE43",
"|+	c #79BD44",
"1+	c #51AC42",
"2+	c #66B343",
"3+	c #63B03E",
"4+	c #64B345",
"5+	c #5FB140",
"6+	c #52AD3F",
"7+	c #52AA41",
"8+	c #77BC42",
"9+	c #7BBE47",
"0+	c #55AA42",
"a+	c #51AA40",
"b+	c #56AE41",
"c+	c #79BC46",
"d+	c #68B33D",
"e+	c #53AA3F",
"f+	c #63B13C",
"g+	c #68B544",
"h+	c #55AC40",
"i+	c #7BBF44",
"j+	c #69B744",
"k+	c #65B741",
"l+	c #65B13E",
"m+	c #69B741",
"n+	c #66B740",
"o+	c #55AA40",
"p+	c #65B544",
"q+	c #65B740",
"r+	c #66B242",
"s+	c #52AB40",
"t+	c #55AC41",
"u+	c #5FB243",
"v+	c #66B241",
"w+	c #61B03E",
"x+	c #5EB343",
"y+	c #66B942",
"z+	c #63B23C",
"A+	c #66B73E",
"B+	c #67B241",
"C+	c #52AA40",
"D+	c #55AD42",
"E+	c #66B33E",
"F+	c #79BC45",
"G+	c #7DBF45",
"H+	c #66B13F",
"I+	c #63B33D",
"J+	c #62B13F",
"K+	c #7ABD46",
"L+	c #67B744",
"M+	c #52AC41",
"N+	c #57AB43",
"O+	c #53AB41",
"P+	c #66B53E",
"Q+	c #53AB3D",
"R+	c #54A93E",
"S+	c #61B23F",
"T+	c #56AB43",
"U+	c #7ABD45",
"V+	c #51A942",
"W+	c #53A83D",
"X+	c #7ABC43",
"Y+	c #55AB42",
"Z+	c #56AC41",
"`+	c #5AAD3F",
" @	c #53AB3E",
".@	c #51A940",
"+@	c #57AC43",
"@@	c #76BB41",
"#@	c #56AC3F",
"$@	c #52AB42",
"%@	c #54AD41",
"&@	c #54AB41",
"*@	c #53A93D",
"=@	c #64B33C",
"-@	c #62B440",
";@	c #62B33E",
">@	c #7ABE45",
",@	c #78BB40",
"'@	c #6AB640",
")@	c #64B13D",
"!@	c #79C043",
"~@	c #79BB40",
"{@	c #72BC46",
"]@	c #78BE44",
"^@	c #62B240",
"/@	c #7ABC42",
"(@	c #62B23C",
"_@	c #64B03F",
":@	c #64B543",
"<@	c #68B440",
"[@	c #61B13F",
"}@	c #67B242",
"|@	c #63B241",
"1@	c #64B03E",
"  . + @ # $ % & * = - ; > , ' $ + , ) + ) > ; > ! ~ { # - ] ^ / # ( _ # : < [ - } < | 1 - 2 ' 3 4 5 6 > + & - 7 , 8 - , 9 ) 0 a ",
") $ + b = | c d ] e , < f ^ ] $ g + 1 ) 6 h ( i a ! j k $ l = # * m n o 4 0 1 ] + g p 1 @ { o ! $ * q - ; , = n > * k 1 r 7 s c ",
"s < g $ < % = ) ! t u m ! * < 1 - a v 4 - + w 6 - 1 x > ^ $ y - ; 6 h b h z $ ] m A - = ! B 3 C = ; < * D E ^ F $ $ $ . ( a c G ",
"6 + 6 H - I ) . ' ( 6 $ 1 1 , ! $ , < 4 ( q ] 1 d = ( a g _   d - D ^ = ] g 6 # J o * - = - % - = 6 = - ) & m ( K L = a 0 4 , M ",
"> ] - ( s N * a _ * J ! < n o + O g ; 6 , 5 > 4 P # _ ! { g = Q o ' ' * - ] > ) ' K + $ . M D + _ 6 - h a n D - 6 - - _ R < , g ",
"+ - $ S $ ( x ( ' P ' ' 4 J $ S _ - p ( ; h , > k T U V , W . ' ; 1 _ 7 x D k 1 | 1 6 ; 1 ; * s + $ ( ) ; h g ! X < Y a ^ - < s ",
"9 % S , ^ ( ) _ . = f | - - ( Z c ` [ [ = 3 x 1 ^ <  ., ..U ] = n +.+ [ 4 @.#.{ 1 $.^ f @.6 = %.a 6 &.* n [ + , j ; s a @.< ; *.",
"$ ; =.# * + @.-.;.' 0 + 1 D # a + >.' # ,.$ 8 $.) [ '.' a < [ ; $ > s [ , ; ).!.a ( + / 6 ] g , m * . , - a p ).- g J ! 1 $ - ^ ",
"> %.$ g ( l m ~.{.S ( [ ].p ^.A | ` j ) ( { c %.7 ( _ 6 ; @.6 9 6 J ) /.g M ` > + _ # ' , ; - (.a : f > F > _.D c ( %.a < ^ C D ",
":.! - f a ] <.- [.R D 0 }.D . $ # 1 + - ( I q - ( d + ] , $ j - # { P * J $ g # D I * J , * ' ' a = %.+ 4 Q |.+ = $.D 1.. * 2.1 ",
"[ ; ) ( ( - # 4 - c ; 7 < * %.# &.3.^ , ^ = # 4 4.k ^ 4 5.a K 7 ].4 ) a ] =.7 ( 6.+ - , ] - + , _ - g - & = A ( ,.{ n ) | ] * $ ",
"x + - [ + a h p ( , + ; [.7.+ } 8.9.( = 3 Z ! $ + } [.w ] k * $ ; $ a x 0.$ +.+ 6 { * 1 6.a.# - m _ = C = a j - a 7.# _ # M - + ",
"^ # 1 5 $ 1 ).. 7 ) { 6 ] ' > b.D + | * > c.= b ! D + W 1 d.7.! 0.= $ e., * , 1 4 f.Z a >   g.= D , * ~ @.J + 5.D + S m - a = h.",
"' a D 6 @ , + i.a ] @ * * = = A . j J 6 + 4 ! ; ' - d 5 3 4 b k j.q k.- ! , l.3 h + ; c { D . * * , J ; D n { %.6 A m.= _ ' n.o.",
"$ 3 n.n ! D , ' ^.5 p.] K # - a 1 $ = ^ + ] n ) h < - _ , 6 ! h m $ b.# c ` 1 [ 0 6 D f.q.- f.0 * ~ - r.p } 8 , - s.t.$ - u.a - ",
"a j f.= b 5 [ g = 4 v.o 4 o P @ a 7 j i ' ; | g # = p = | P D w.$ ; ; < n = # p ^ 3 , $ $ g = D | ( ( 5.; Q x.$ D ~ y.5 4 - 4 ` ",
"5 8 + h.* a ^ $ % 1 c : # I 6 ) s m.D # n a g =.j ' # , 2.* z.Y f y m a o ^ 0 p Q 0 ; ] # , | 1 + - A.# ] - W a [ J = 7 ( B.( k ",
"_ ( - a 1 ; C.h , , + 1 , ' w.# d.- 6 :.[.Q D.Z < h , 3 u.J a C C.- ) * 7 * ; ! $ p E.|.3 _ ( ^ 6 $ m.) ;.6 8 m 6 I # = W $ h D ",
"' n _ z.$ %.F.p $ &.= $ ( * n _ | [ ) S = # G.< < H.9 ( , . 4 g u I.$ j _ ] D g = J J.K.x.A.&.g w + 7.S p , 3 b * = v 6 h 6 _ L.",
"^ D ^ D = ( 9.; ' < W a - ; M.( D - c.g D 7 m.) # > S ^ = . - > 1.N.0 l = k.1 # = n O.P.= Q.R.Y %.a ; $ c _ ! s c.$ 3 J { > g ( ",
"' + : ; D , ^ c , + e P > K R >.$ o $ ; / . * w - ; K + I 7 $ , > = a $ K = ; 4 1 a S.T.4 U.V.m 6 $ 4 6 < - ; 6 a 6 P $ + n ; - ",
"p.g Z )   $ $ # * ( @.+ | ' $ W.X.+ = = $ D = h [ _ | ) , Q 0 + 4 | $ ; m.= 6 + # W.I ; D P.Y.B.* 5 M ( l.= [ 6.3 o Z.$ `.. j ^.",
"s & 6 # h.s - 8 _ + * > -  +.+++@+6.p | ; _ ] f 5.* { ^ ' @ ; { 6 $ 3 S #+1 ; ; ! g 1 D n 7.6 , 0 { ( | $ P . * = ) $+' c.+ D } ",
"6 4 ^ r _ = * ( ; + 1 k ^ %+&+f # n ] { ] [ g = * - ] %.6 | _ ; $ s #+D +.5.D h m D $ 6 ; 0 ^.. - D # d ( 6 ; < ; | _ o - h | { ",
"c I 7 ^.> H.V &.# ; + M @ *+, n m =+M ) m $.1 ( -+= g - # [ + + K h 8.@ + + _ { e f ) g * ] 6 $ 6 4 m a - ;+6 _ b 7 = ' - 1 1 ) ",
"( 6 * 2.' - >+n 0 _ 1 1 ; < , J = ' ; 0 ^ Y = [ 7.] e ) , m 1 a k x.$ ( J ^ > %.- J 1 # = K ] g P = g 6 >.3 4 < ] Y [ h.n a < - ",
"$ h ^ u.' c.$ ].' 7 a = 3 ^.[ - [ 0 6 * ] + ; g # ~ a $ ( [.. -.D = - i * 1 ;.c.) $ b k q k.p 6 J ' | +.= ( ; _ %.D a a , J a 5.",
"- C l ; A.] j ( $ = ,+: ( ( 1 = . ^ p '+6 %.0 = e )+ +] a ; - . h.| ( - m q.. & $ J $ p $ < m ! 1 6 x.k - o _ * a # * C.] a . ( ",
") P ; ; J c.&+g _ , e V + < I $.= 6 M D a , p # | ; D ( < h ' x ~ o 1 h.; n # # = q.@.; , - = , + c ` > [ + - 6 J = 4 6 1 ) 5 _ ",
"+ g ' = D o !++ < ! P $ ~+-+@.. h f J ) *+# # c.r {+! 7.6 l { n = ; = j p < q ; } 0 g d s { k & ] , ( 7 D < j ; * 5 3 ).0 W + _ ",
"$ 6 c.- 5.+ $ : ) , 6 w.= d Z %.9 $ | 1 D ( $ , s 8 D ; k = J h { = D # { 4 # - $ j = + | :.s ( $ & # d 5 ' $ [.1 a - 1 1 e.1 + ",
"s., * $ ] ]+= ( [ g 1 - %.r [ U = ^ 8 - { ] = ] ( ) , ; R - = = , * , $ ^+/+a (+= ] 7 J $ - ; , n _+:+` n i s > D # <+Q.1 { f s ",
"! [+= ' ~+a + - > + = ' = $ $ }+|+h ; # ~ <.[ c.= $ = - ! ; D m ! 6 D ` 1+D.2+$ # 3+p.J g m c 3 p.4+5+< y 1 ) [ + c 6+7+2., - - ",
"$ < d ) # n k.o 5 7 _ a n & 4 8+9+n b + * $ p d.b = _ 3 n q.8 6 8 R g m 0+a+$ b+X ( $ 6.' $ 4.3 * p D < < $ $ A A.+.q.{ ( 6.3 I ",
"w.6 V Q +.f K g q.a | a # / c+d+{ # _ _ o ; o o p ~ $ 4 ,.= . . 6 + 4 ++* S j e+h.= 6 P , 6.$ 6 | > , n a < , * h Q %.s.P v.{ m ",
") 4 k - <.$ $ q.= = Q I [ 6 f+# - * ] = ( + # = 0 ++a I 8 { >.. - P g+h+P 5 } 7 + = + + > 6 %.Z o { ( = _ ; > s k d.m + s r ; ! ",
"( = ' m H.i+8 g _ ^ n _ j + $ (++ 6 4 6 = : ' a c _+w j+f S , x . U f ] y.6 ;+- O a - = ,+k++ + J < = ; $ >.] ] $ = p ; + l+h [ ",
"$ m+$ m [+Z.1 * > Z n Q + ' n+* = * - . , o.o+} p+:+>.q+t.+ 1 c.` q.- + - = ' $ $ _ J ^ , , x ; ) * , < A 6 a 1 6.w.# g # S g @ ",
"r+j , ] a d 5.$ , 3 0 +.b (+1 W C = > + a 1 Q.; ) s+` ].t+) ! 2++ $ *+- ) w.a S a A.6 ^ 1 c.0 D - _ % - ; _ _ ] 4.K , & , d J 5 ",
"* $ > . ) h 6 n g # - - * d + # ) 9 A , + $ u+%.h <.j : > j ] 5 $ ) Z + - ) v+f b [+< - | 6 4 w+w.b 6 ' - < < + , x+[ * $ 7 ] ; ",
"_ g _ [ M * ^.g = 0 J * y+, z+b $.a 6 ) k k.3 # ! + 9 , | > j   > 6 - C ; + = N , , _ _ p ) M 1 1 { [ 6.;.( j ' A+|.| ' `.4 5., ",
"1 ) n K ` k.4 1 $ m $ o ( , b Y B+' k.g ) - , ) . $ $ ~+$ D J 6 { ; _ k.m J ' 5 %.( I { + 0 ; 3 u.= | D ^ U = ( > | C+D+k _ g ( ",
"P j < ! _ W ( K - , J ] ! n q _ - < D 6 < W d.] + >.] Z j e ;.$ g h M ) g < E+[.^ a $ 6 F+G+= ^ H+D _ } = ; I+@ ; ] W.)+. o 6 < ",
"g | J+$.+ m ( a e f S [ ; d.x 7 > %.$ K a ' 5 - ; g + q._ * = ; m k + $ g $ $ 4 ; < o - K+3.J < (+- f , %., = S $ k D Z @ $ c $ ",
"- +.a @.# * D J _ x.4.L+J %.$ ' ! > ] @.j.$ + >.+ + 4 ^ m q n < ; D # - h.c # ! + + @ g 4 ; = = 5.; - - ^.D + _ 5 8 < ` g l %.h ",
"a + = a L+_.M+w.n 1 _ < = z.A a + a { | ^.] b ^ $ | = 6 6.- k 1 , l - [ s.P # J 6 ( P g s ( = Y 1 a ~ < ( ! L.) + ) ! 3 , ; = 0 ",
"= _ *.+ + N+:+, . < 4 _ ' 6 q ) 4 1 W %.$ > 6 c.. = # > ) a | D q.- = _ D , ] 6 $ *.m - E ; x.0 = - + m J+0 + { $ ( a $ D l $ _ ",
"; =.* & 9 3 ; D O+k - . j w ; = a + + ( p P 5 [ 6 , ] # ] ^ < 0 ; n ) 6 a 0 ; k v+; D . N a [.< ; 4., 8 $ + D > , S ; + D 1 P+A ",
"1 ' h * = =._ , t+( 6.h _ { B., 5 0 3 1 Q+R+( _ ).] a * _ O e.+ 8 r+Z - , h D & * > . = 6 h ) @.( $ a D k.] - ] h = > 6.- ( 1 < ",
"+ m [ - S+i , 6 ( 9 ( n - ^ $ # & 2+0 q._+T+[ V ^ c h = + @.j D i U+:+%+_ ; [ # s ; > 1 b J # h A a r D ) ( (+_ D =.) * J - %.A ",
";.f.= _ ^ > ] | | 6 ( 0 L.w S - 0 p+t+a V+W+$ 7 < >.< ) m = ^ 4 0 X+Y+Z+6 + { = , - d.b m.< 7 + a `+_ { = ( y > ] 0 >.; %.# ] %.",
"g r + ( # a + 6.] * ( _ 6 P b 0 + p+|.-  @.@h +@%.+ $ 6 3 ; ( - - @@#@$@- 6 - = < z.* Y 2.m j ] 1 %@k - P $ _ o < J Z _ d | a ) ",
"+ 9 1 f < ^.f 0 K 1 ; 8 1 %.^ 5 a s.m.h.&@*@# >+[.D $ _ . ' ; a 6 q.~ ).' > c a . &.+ %.o ( S k @ s+&.2.s+k u.=@- { ( a S m - { ",
"d ( = o { ,+D ; $ $ { V # $ - ] # ` ) a ( m h e.^ 6 [ ] ; r g _ * k . - ( D | ( j+( + > 0 | 1 _ h + # s.= ( n J+] - g m.M - J ( ",
"m ; - - y.m @.-@_ ; s S V ( %.D c ; ; > + 1 n , 1 h $ 7 4 k.D h ] 3 , a I ; ; = ; ; # = ) 6 * < * + ;@$ - - 6 ; 5 e.>@,@5 6 + ( ",
"J [.h + ( m.'@X+^ 4.I+D ! M & @.( = d.p+( I $ m J ; T s.z.k . ; ] j a )@| a ) # { h.Q + 4.+ I Z =.; s * o = , %.^ ( !@~@d 0 0 ] ",
"6 D   - ; I {@]@$ , $ + # ^@_ + D n . %.# a E + p : g & & > g s - D 7 ( 4 p ^./@f - f.+ p | . s D + a < ' d 0 S s # < Z - ] a 0 ",
"= * 7 ; = =.= S ] ;@6 + 6 ; > 6 1 @ ^@_ 7.%.@ _ ; 1 ] 6 > - ( n m J k 9 ! ( %.!.4 P J (@A = * ] p.J - , h $ ).; P 6 6.%.= _ w S ",
"8 /.7 j 6 h < ; 6.b ( 6 < 4 (+A.- p # - g _@| 9 ) > = M 7 . - ] m J + ;.4 s 0 ` + > . # = n # %.. < :@1 J ( g 1 ! 3 $ - * 6 o %.",
"= = 2.B+> 3 , , 9 6 = I ^ Z @ [.p ( - _ ( y > ] A + ) <@p + * , l+$ = J M ] 6 ] = c.%.( D 6 [ 2.k > { @ 4 I 6 _ < ( ! 6 J ( j.= ",
"= | M D g p = $ = ( ( - 6 + , _ = k } 4 * [@+ 4 ' $ 1 = $ 4 ) - a x.h e $ ~ ] : o g l 1 = + { @.%.k }@h.; m x & ^.+ < , D ; 6.- ",
"$ | _ :.- [ $ ).; ) m y.; 3+g 7 - : + ' ) 9 Z 4._ + 4 P ( ( $ 6.( $ - m ! $ h - P $ $ S [ - ] |@).= j $ ! 0 ; = # $ l a ;.x * j ",
"| - b 3 $ @.c k 6 J = + - > * g 6 - 4 $.7 < < ' > - 4 9 _ = D S y 1@6 * g ; D 1 - P ^ 5 > = J M ; $ m ` [ , ; | . _ a 4 % $ q.%.",
"5 ,+k a 1 $ m g ; n n 9 ; M $ _ 5 ( 9 > D + q.' = = [+{ 0 ) 4 E+m ( . + 1 - & ] > @.$ @.q S 1 6 w _ J+( P . 6 ! $ * $ w.@ ) * = "};
